<svg width="159" height="148" viewBox="0 0 159 148" fill="none" xmlns="http://www.w3.org/2000/svg">
<g id="edna">
<g id="legs">
<g id="leg">
<path id="Vector 76" d="M81.8778 129.582C80.2121 111.596 78.667 109.157 71.5393 90.3283L77.8118 88.3099C82.8932 109.643 82.3993 111.959 93.7516 128.531L89.6464 129.852L88.5755 130.197L86.9691 130.714L81.8778 129.582Z" fill="white" stroke="black"/>
<path id="Vector 77" d="M80.9281 133.214C81.1251 131.823 81.472 130.593 81.9637 129.209L92.5372 127.166C94.4185 129.051 95.6637 131.075 96.9388 132.994C98.8975 135.942 98.6577 140.578 95.7127 142.541L92.9934 144.354L91.4176 139.456L90.4365 145.176C84.8653 143.713 80.121 138.918 80.9281 133.214Z" fill="black" stroke="black"/>
</g>
<g id="leg_2">
<path id="Vector 76_2" d="M66.4915 124.754C73.2573 108.005 73.0023 105.129 75.2997 85.128L81.7996 86.2099C76.5351 107.499 75.0347 109.33 77.5259 129.263L73.2719 128.555L72.1622 128.37L70.4976 128.093L66.4915 124.754Z" fill="white" stroke="black"/>
<path id="Vector 77_2" d="M63.9824 127.546C64.7954 126.4 65.6676 125.466 66.7392 124.461L77.0726 127.493C77.8802 130.031 78.0591 132.4 78.3125 134.69C78.7017 138.208 76.3633 142.218 72.846 142.613L69.5982 142.977L70.4429 137.902L66.9486 142.536C62.6683 138.681 60.6503 132.245 63.9824 127.546Z" fill="black" stroke="black"/>
</g>
<g id="leg_3">
<path id="Vector 77_3" d="M103.517 128.722C104.104 127.445 104.787 126.365 105.654 125.179L116.37 126.241C117.635 128.585 118.25 130.88 118.924 133.083C119.96 136.468 118.406 140.842 115.023 141.882L111.9 142.843L111.788 137.7L109.214 142.901C104.293 139.908 101.115 133.958 103.517 128.722Z" fill="black" stroke="black"/>
</g>
<g id="leg_4">
<path id="Vector 76_3" d="M121.48 127.403C116.504 110.037 114.534 107.928 104.035 90.7492L109.824 87.6018C118.777 107.621 118.721 109.988 132.952 124.166L129.163 126.226L128.175 126.763L126.692 127.569L121.48 127.403Z" fill="white" stroke="black"/>
<path id="Vector 77_4" d="M121.22 131.148C121.156 129.744 121.268 128.471 121.494 127.019L131.505 123.05C133.704 124.553 135.303 126.31 136.912 127.959C139.384 130.493 140.009 135.092 137.479 137.568L135.143 139.854L132.686 135.334L132.784 141.137C127.038 140.733 121.486 136.902 121.22 131.148Z" fill="black" stroke="black"/>
</g>
<g id="leg_5">
<path id="Vector 76_4" d="M121.48 127.403C116.504 110.037 114.534 107.928 104.035 90.7492L109.824 87.6018C118.777 107.621 118.721 109.988 132.952 124.166L129.163 126.226L128.175 126.763L126.692 127.569L121.48 127.403Z" fill="white" stroke="black"/>
<path id="Vector 77_5" d="M121.22 131.148C121.156 129.744 121.268 128.471 121.494 127.019L131.505 123.05C133.704 124.553 135.303 126.31 136.912 127.959C139.384 130.493 140.009 135.092 137.479 137.568L135.143 139.854L132.686 135.334L132.784 141.137C127.038 140.733 121.486 136.902 121.22 131.148Z" fill="black" stroke="black"/>
</g>
</g>
<g id="body">
<g id="Group 37">
<g id="Union">
<mask id="path-10-inside-1" fill="white">
<path fill-rule="evenodd" clip-rule="evenodd" d="M140.868 77.7058C140.411 87.9247 136.616 97.037 130.83 103.551C124.289 111.014 113.889 116.08 101.986 116.615C96.1999 116.875 90.6718 116.037 85.6929 114.32C78.1141 112.736 70.3244 108.99 63.4202 103.15C45.9661 88.3842 40.7806 65.8182 51.8382 52.7472C60.2823 42.7655 75.7567 41.2073 90.3726 47.6038C96.1341 41.839 103.581 38.5039 111.571 38.8606C128.675 39.6241 141.791 57.0157 140.868 77.7058Z"/>
</mask>
<path fill-rule="evenodd" clip-rule="evenodd" d="M140.868 77.7058C140.411 87.9247 136.616 97.037 130.83 103.551C124.289 111.014 113.889 116.08 101.986 116.615C96.1999 116.875 90.6718 116.037 85.6929 114.32C78.1141 112.736 70.3244 108.99 63.4202 103.15C45.9661 88.3842 40.7806 65.8182 51.8382 52.7472C60.2823 42.7655 75.7567 41.2073 90.3726 47.6038C96.1341 41.839 103.581 38.5039 111.571 38.8606C128.675 39.6241 141.791 57.0157 140.868 77.7058Z" fill="white"/>
<path d="M130.83 103.551L130.082 102.887L130.077 102.892L130.83 103.551ZM101.986 116.615L102.031 117.614L102.031 117.614L101.986 116.615ZM85.6929 114.32L86.0188 113.375L85.9592 113.354L85.8975 113.341L85.6929 114.32ZM63.4202 103.15L64.0661 102.386L64.0661 102.386L63.4202 103.15ZM51.8382 52.7472L52.6017 53.393L52.6017 53.393L51.8382 52.7472ZM90.3726 47.6038L89.9717 48.5199L90.5972 48.7936L91.0799 48.3107L90.3726 47.6038ZM131.577 104.215C137.524 97.5205 141.401 88.1862 141.867 77.7504L139.869 77.6612C139.422 87.6632 135.708 96.5534 130.082 102.887L131.577 104.215ZM102.031 117.614C114.183 117.068 124.847 111.894 131.582 104.21L130.077 102.892C123.731 110.134 113.594 115.092 101.941 115.616L102.031 117.614ZM85.367 115.266C90.4662 117.023 96.1203 117.879 102.031 117.614L101.941 115.616C96.2796 115.87 90.8774 115.05 86.0188 113.375L85.367 115.266ZM85.8975 113.341C78.49 111.793 70.8502 108.125 64.0661 102.386L62.7744 103.913C69.7986 109.855 77.7382 113.679 85.4882 115.299L85.8975 113.341ZM64.0661 102.386C55.4879 95.1295 49.9549 85.9799 47.9119 77.0891C45.869 68.1986 47.3222 59.6339 52.6017 53.393L51.0747 52.1013C45.2967 58.9315 43.8138 68.1854 45.9627 77.537C48.1116 86.8883 53.8983 96.4044 62.7744 103.913L64.0661 102.386ZM52.6017 53.393C60.6558 43.8723 75.5907 42.2262 89.9717 48.5199L90.7735 46.6877C75.9227 40.1884 59.9088 41.6587 51.0747 52.1013L52.6017 53.393ZM111.615 37.8616C103.305 37.4906 95.595 40.9638 89.6653 46.8969L91.0799 48.3107C96.6732 42.7142 103.857 39.5172 111.526 39.8596L111.615 37.8616ZM141.867 77.7504C142.807 56.6949 129.44 38.6573 111.615 37.8616L111.526 39.8596C127.909 40.5909 140.776 57.3365 139.869 77.6612L141.867 77.7504Z" fill="black" mask="url(#path-10-inside-1)"/>
</g>
<path id="Intersect" fill-rule="evenodd" clip-rule="evenodd" d="M132.369 50.1529C127.087 43.374 119.67 39.016 111.297 38.6422C107.107 38.4551 103.065 39.2837 99.3382 40.9457C98.4187 47.6555 104.425 54.1205 111.639 56.4415C119.172 58.8649 128.759 56.3693 132.369 50.1529Z" fill="#060505"/>
</g>
<g id="Group 38">
<path id="Intersect_2" fill-rule="evenodd" clip-rule="evenodd" d="M130.064 104.346C130.899 103.375 131.701 102.356 132.468 101.293C139.236 91.9049 141.772 80.9755 140.269 71.412C132.585 68.5338 124.934 75.4249 122.616 83.6602C120.428 91.435 123.44 101.16 130.064 104.346Z" fill="#060505"/>
</g>
<path id="Vector 74" d="M104.114 61.3552C98.0734 56.8285 88.694 61.9186 84.3505 67.7105C79.1773 74.6088 84.2356 83.9843 91.9371 88.2028C100.228 92.7441 112.724 90.9445 115.59 82.2259C118.228 74.1976 112.593 67.7102 104.114 61.3552Z" fill="black" stroke="black"/>
</g>
<ellipse id="utter" cx="96" cy="114" rx="16" ry="10" fill="#F79797"/>
<path id="Vector 76_5" d="M106.514 124.755C113.802 108.227 113.638 105.345 116.562 85.4257L123.024 86.7111C117.094 107.824 115.537 109.608 117.402 129.609L113.172 128.768L112.069 128.548C111.422 128.42 111.038 128.428 110.414 128.219C108.482 127.571 106.514 124.755 106.514 124.755Z" fill="white" stroke="black"/>
<g id="edna_2">
<g id="ear">
<path id="Ellipse 40" d="M33.8121 33.3631C32.3954 35.9158 29.3612 38.7651 25.8398 40.508C22.3152 42.2525 18.4283 42.8313 15.2422 41.0631C11.988 39.257 9.46861 35.6554 8.61027 32.0507C7.75316 28.4512 8.57124 25.0072 11.7537 23.2762C13.0861 22.5515 14.0969 22.5634 14.9662 22.9435C15.8798 23.343 16.7071 24.1774 17.585 25.2585C17.8991 25.6453 18.2241 26.0703 18.5599 26.5093C19.1262 27.2498 19.7231 28.0302 20.3495 28.7348C21.367 29.8794 22.5453 30.929 24.0192 31.5194C25.0756 31.9426 26.4609 31.9458 27.813 31.8401C28.4995 31.7865 29.2003 31.7023 29.8727 31.6192C29.9368 31.6113 30.0005 31.6034 30.064 31.5955C30.671 31.5203 31.25 31.4486 31.7858 31.4009C32.3795 31.3481 32.8971 31.3271 33.3188 31.3597C33.7524 31.3933 34.0161 31.4793 34.158 31.5824C34.2595 31.6562 34.3328 31.7592 34.319 32.0046C34.303 32.2873 34.1675 32.7228 33.8121 33.3631Z" fill="white" stroke="black"/>
<path id="Ellipse 41" d="M31.4621 35.1119C31.5412 35.1089 31.6067 35.1096 31.6601 35.113C31.5023 35.4672 31.0653 36.0137 30.3387 36.6285C29.5816 37.2693 28.5657 37.9374 27.3837 38.4823C25.0136 39.575 22.0404 40.1453 19.1722 39.0983C16.2636 38.0365 13.6674 35.5881 12.3018 33.3038C11.6153 32.1554 11.2799 31.1149 11.3131 30.3563C11.3293 29.9871 11.4312 29.7083 11.5972 29.5052C11.7615 29.304 12.0244 29.1334 12.4437 29.0425C13.1217 28.8956 13.6842 29.0708 14.2518 29.4853C14.8441 29.9179 15.4061 30.585 16.0555 31.3834C16.1054 31.4447 16.1557 31.5068 16.2065 31.5694C17.4403 33.0901 18.9491 34.9499 21.3532 35.6919C23.8238 36.4544 26.7848 35.945 28.935 35.5301C29.0919 35.4998 29.2436 35.4702 29.3903 35.4416C30.2855 35.2671 30.9875 35.1301 31.4621 35.1119Z" fill="#D2AC99" stroke="black"/>
</g>
<g id="cow">
<g id="cowhead">
<g id="body_2">
<g id="Group 37_2">
<g id="Union_2">
<mask id="path-19-inside-2" fill="white">
<path fill-rule="evenodd" clip-rule="evenodd" d="M140.868 77.7058C140.411 87.9247 136.616 97.037 130.83 103.551C124.289 111.014 113.889 116.08 101.986 116.615C96.1999 116.875 90.6718 116.037 85.6929 114.32C78.1141 112.736 70.3244 108.99 63.4202 103.15C45.9661 88.3842 40.7806 65.8182 51.8382 52.7472C60.2823 42.7655 75.7567 41.2073 90.3726 47.6038C96.1341 41.839 103.581 38.5039 111.571 38.8606C128.675 39.6241 141.791 57.0157 140.868 77.7058Z"/>
</mask>
<path fill-rule="evenodd" clip-rule="evenodd" d="M140.868 77.7058C140.411 87.9247 136.616 97.037 130.83 103.551C124.289 111.014 113.889 116.08 101.986 116.615C96.1999 116.875 90.6718 116.037 85.6929 114.32C78.1141 112.736 70.3244 108.99 63.4202 103.15C45.9661 88.3842 40.7806 65.8182 51.8382 52.7472C60.2823 42.7655 75.7567 41.2073 90.3726 47.6038C96.1341 41.839 103.581 38.5039 111.571 38.8606C128.675 39.6241 141.791 57.0157 140.868 77.7058Z" fill="white"/>
<path d="M130.83 103.551L130.082 102.887L130.077 102.892L130.83 103.551ZM101.986 116.615L102.031 117.614L102.031 117.614L101.986 116.615ZM85.6929 114.32L86.0188 113.375L85.9592 113.354L85.8975 113.341L85.6929 114.32ZM63.4202 103.15L64.0661 102.386L64.0661 102.386L63.4202 103.15ZM51.8382 52.7472L52.6017 53.393L52.6017 53.393L51.8382 52.7472ZM90.3726 47.6038L89.9717 48.5199L90.5972 48.7936L91.0799 48.3107L90.3726 47.6038ZM131.577 104.215C137.524 97.5205 141.401 88.1862 141.867 77.7504L139.869 77.6612C139.422 87.6632 135.708 96.5534 130.082 102.887L131.577 104.215ZM102.031 117.614C114.183 117.068 124.847 111.894 131.582 104.21L130.077 102.892C123.731 110.134 113.594 115.092 101.941 115.616L102.031 117.614ZM85.367 115.266C90.4662 117.023 96.1203 117.879 102.031 117.614L101.941 115.616C96.2796 115.87 90.8774 115.05 86.0188 113.375L85.367 115.266ZM85.8975 113.341C78.49 111.793 70.8502 108.125 64.0661 102.386L62.7744 103.913C69.7986 109.855 77.7382 113.679 85.4882 115.299L85.8975 113.341ZM64.0661 102.386C55.4879 95.1295 49.9549 85.9799 47.9119 77.0891C45.869 68.1986 47.3222 59.6339 52.6017 53.393L51.0747 52.1013C45.2967 58.9315 43.8138 68.1854 45.9627 77.537C48.1116 86.8883 53.8983 96.4044 62.7744 103.913L64.0661 102.386ZM52.6017 53.393C60.6558 43.8723 75.5907 42.2262 89.9717 48.5199L90.7735 46.6877C75.9227 40.1884 59.9088 41.6587 51.0747 52.1013L52.6017 53.393ZM111.615 37.8616C103.305 37.4906 95.595 40.9638 89.6653 46.8969L91.0799 48.3107C96.6732 42.7142 103.857 39.5172 111.526 39.8596L111.615 37.8616ZM141.867 77.7504C142.807 56.6949 129.44 38.6573 111.615 37.8616L111.526 39.8596C127.909 40.5909 140.776 57.3365 139.869 77.6612L141.867 77.7504Z" fill="black" mask="url(#path-19-inside-2)"/>
</g>
<path id="Intersect_3" fill-rule="evenodd" clip-rule="evenodd" d="M132.369 50.1529C127.087 43.374 119.67 39.016 111.297 38.6422C107.107 38.4551 103.065 39.2837 99.3382 40.9457C98.4187 47.6555 104.425 54.1205 111.639 56.4415C119.172 58.8649 128.759 56.3693 132.369 50.1529Z" fill="#060505"/>
</g>
<g id="Group 38_2">
<path id="Intersect_4" fill-rule="evenodd" clip-rule="evenodd" d="M130.064 104.346C130.899 103.375 131.701 102.356 132.468 101.293C139.236 91.9049 141.772 80.9755 140.269 71.412C132.585 68.5338 124.934 75.4249 122.616 83.6602C120.428 91.435 123.44 101.16 130.064 104.346Z" fill="#060505"/>
</g>
<path id="Vector 74_2" d="M104.114 61.3552C98.0734 56.8285 88.694 61.9186 84.3505 67.7105C79.1773 74.6088 84.2356 83.9843 91.9371 88.2028C100.228 92.7441 112.724 90.9445 115.59 82.2259C118.228 74.1976 112.593 67.7102 104.114 61.3552Z" fill="black" stroke="black"/>
</g>
<g id="upperhead">
<path id="horn" d="M87.499 29C83.4313 34.8286 69.999 34 69.999 34L72.999 44C72.999 44 86.6665 41.0417 91.499 34C96.3315 26.9584 87.499 12.5 87.499 12.5C87.499 12.5 91.1867 23.7159 87.499 29Z" fill="#A77D55" stroke="black"/>
<path id="horn_2" d="M25.4139 18.318C28.2751 24.8243 41.6134 26.6142 41.6134 26.6142L36.7326 35.8434C36.7326 35.8434 23.8973 30.2927 20.5209 22.4482C17.1445 14.6036 28.6112 2.13074 28.6112 2.13074C28.6112 2.13074 22.82 12.4195 25.4139 18.318Z" fill="#A77D55" stroke="black"/>
<g id="ear_2">
<path id="Ellipse 40_2" d="M33.8114 33.363C32.3947 35.9157 29.3605 38.7649 25.8391 40.5079C22.3146 42.2523 18.4276 42.8312 15.2415 41.0629C11.9873 39.2569 9.46794 35.6552 8.6096 32.0506C7.75249 28.451 8.57057 25.007 11.753 23.2761C13.0854 22.5513 14.0962 22.5633 14.9655 22.9434C15.8791 23.3429 16.7064 24.1772 17.5843 25.2584C17.8984 25.6452 18.2234 26.0702 18.5592 26.5092C19.1255 27.2497 19.7224 28.0301 20.3488 28.7347C21.3663 29.8793 22.5447 30.9289 24.0186 31.5193C25.0749 31.9424 26.4602 31.9457 27.8123 31.84C28.4988 31.7864 29.1996 31.7021 29.8721 31.6191C29.9361 31.6111 29.9999 31.6032 30.0633 31.5954C30.6703 31.5202 31.2493 31.4484 31.7852 31.4008C32.3788 31.3479 32.8964 31.327 33.3181 31.3596C33.7518 31.3931 34.0154 31.4791 34.1573 31.5823C34.2589 31.6561 34.3322 31.759 34.3183 32.0045C34.3024 32.2872 34.1668 32.7227 33.8114 33.363Z" fill="white" stroke="black"/>
<path id="Ellipse 41_2" d="M31.4614 35.1118C31.5405 35.1087 31.606 35.1095 31.6594 35.1128C31.5016 35.4671 31.0646 36.0136 30.3381 36.6284C29.5809 37.2692 28.565 37.9372 27.383 38.4822C25.0129 39.5748 22.0397 40.1451 19.1715 39.0981C16.2629 38.0364 13.6667 35.588 12.3012 33.3037C11.6146 32.1553 11.2792 31.1147 11.3125 30.3562C11.3286 29.987 11.4305 29.7082 11.5965 29.505C11.7609 29.3039 12.0237 29.1332 12.443 29.0424C13.121 28.8955 13.6835 29.0707 14.2511 29.4851C14.8434 29.9177 15.4054 30.5848 16.0548 31.3833C16.1047 31.4446 16.155 31.5066 16.2058 31.5692C17.4396 33.09 18.9485 34.9498 21.3525 35.6917C23.8232 36.4543 26.7841 35.9448 28.9344 35.53C29.0912 35.4997 29.243 35.4701 29.3896 35.4415C30.2848 35.2669 30.9868 35.13 31.4614 35.1118Z" fill="#D2AC99" stroke="black"/>
</g>
<g id="ear_3">
<path id="Ellipse 40_3" d="M67.2293 41.1517C67.1569 44.0703 68.3287 48.0642 70.4811 51.3513C72.6354 54.6414 75.6929 57.1102 79.3357 57.2006C83.0563 57.2928 87.0535 55.4647 89.6202 52.7922C92.1833 50.1235 93.2234 46.7399 91.3571 43.6349C90.5758 42.3349 89.6984 41.8329 88.7563 41.7201C87.7663 41.6015 86.6302 41.9014 85.3256 42.3886C84.8587 42.5629 84.3632 42.7645 83.8512 42.9728C82.9877 43.3242 82.0777 43.6944 81.1806 43.9844C79.7233 44.4555 78.1756 44.7632 76.6058 44.5252C75.4807 44.3546 74.2849 43.6554 73.1728 42.879C72.6082 42.4849 72.0467 42.0571 71.5091 41.6447C71.4579 41.6054 71.4069 41.5663 71.3562 41.5274C70.871 41.1549 70.4082 40.7996 69.9705 40.487C69.4855 40.1406 69.0499 39.8602 68.6699 39.6746C68.279 39.4838 68.0082 39.4243 67.8335 39.4413C67.7086 39.4534 67.5932 39.5051 67.4808 39.7237C67.3512 39.9755 67.2474 40.4196 67.2293 41.1517Z" fill="white" stroke="black"/>
<path id="Ellipse 41_3" d="M68.3689 43.8502C68.3022 43.8075 68.2454 43.7749 68.1977 43.7508C68.1542 44.1361 68.254 44.8287 68.5687 45.727C68.8967 46.6631 69.4339 47.7538 70.1767 48.8226C71.6662 50.9657 73.9402 52.9641 76.9435 53.5151C79.989 54.0738 83.4679 53.2788 85.8028 52.0016C86.9766 51.3595 87.7931 50.6325 88.1488 49.9617C88.322 49.6353 88.3755 49.3433 88.3353 49.084C88.2956 48.8273 88.1555 48.547 87.84 48.2562C87.3299 47.786 86.7563 47.6519 86.057 47.7216C85.3271 47.7943 84.5046 48.0846 83.5401 48.4438C83.466 48.4714 83.3912 48.4994 83.3157 48.5276C81.4813 49.2133 79.2381 50.052 76.7896 49.4732C74.2733 48.8785 71.9789 46.9388 70.3355 45.4914C70.2156 45.3858 70.0998 45.2834 69.9879 45.1844C69.3046 44.5803 68.7688 44.1064 68.3689 43.8502Z" fill="#D2AC99" stroke="black"/>
</g>
<path id="Ellipse 28" d="M73.8757 50.6208C72.1512 56.0897 68.6082 62.7491 62.9962 67.2358C57.4103 71.7017 49.7452 74.0423 39.6636 70.8632C34.6111 69.27 31.0512 66.9525 28.5941 64.2248C26.1373 61.4974 24.7605 58.3349 24.1126 55.0161C22.8129 48.358 24.4518 41.0973 26.1903 35.584C29.5692 24.8687 42.9393 19.3704 56.1981 23.5514C69.4568 27.7323 77.2546 39.9055 73.8757 50.6208Z" fill="white" stroke="black"/>
<path id="Ellipse 27" d="M73.9784 50.6339C72.2538 56.1028 68.7109 62.7623 63.0989 67.249C57.513 71.7148 49.8479 74.0554 39.7663 70.8763C34.7138 69.2831 31.1538 66.9656 28.6967 64.2379C26.24 61.5106 24.8631 58.3481 24.2153 55.0292C22.9155 48.3712 24.5545 41.1104 26.293 35.5971C29.6719 24.8818 43.042 19.3836 56.3008 23.5645C69.5595 27.7454 77.3573 39.9186 73.9784 50.6339Z" fill="white" stroke="black"/>
<path id="Vector 69" d="M67.7652 43.4578C68.1943 48.7 65.9751 54.5168 60.1426 55.0814C53.9472 55.6812 50.3862 49.3194 50.4784 43.7349C50.5615 38.696 53.0598 33.3475 58.6746 33.1022C64.4187 32.8511 67.3444 38.3177 67.7652 43.4578Z" fill="#C4C4C4" stroke="black"/>
<path id="Vector 70" d="M68.1913 45.4018C68.6141 49.7559 66.3264 54.5954 60.3589 55.0825C54.0203 55.5999 50.3976 50.3253 50.5091 45.6852C50.6096 41.4985 53.1814 37.0472 58.9252 36.826C64.8011 36.5998 67.7768 41.1325 68.1913 45.4018Z" fill="white" stroke="black"/>
<path id="Vector 71" d="M32.8928 34.3763C30.3824 37.9566 29.6966 43.1472 34.0061 46.1892C38.5836 49.4205 43.9986 46.4494 46.245 42.3872C48.272 38.7219 48.5459 33.7424 44.2735 31.0285C39.9028 28.2523 35.3543 30.8659 32.8928 34.3763Z" fill="#C4C4C4" stroke="black"/>
<path id="Vector 62" d="M32.9955 34.3895C30.4851 37.9698 29.7993 43.1603 34.1087 46.2024C38.6862 49.4336 44.1013 46.4625 46.3477 42.4004C48.3746 38.735 48.6486 33.7555 44.3762 31.0417C40.0055 28.2654 35.457 30.879 32.9955 34.3895Z" fill="#C4C4C4" stroke="black"/>
<path id="Vector 72" d="M32.5026 36.0981C30.3546 39.0928 30.004 43.6 34.2065 46.5058C38.6703 49.5923 43.5699 47.294 45.4439 43.8624C47.1347 40.7661 47.1118 36.4205 42.9624 33.8043C38.7176 31.1279 34.6086 33.1617 32.5026 36.0981Z" fill="white" stroke="black"/>
<path id="Vector 63" d="M32.6052 36.1112C30.4573 39.1059 30.1067 43.6132 34.3091 46.519C38.773 49.6055 43.6726 47.3071 45.5465 43.8756C47.2374 40.7792 47.2145 36.4337 43.0651 33.8174C38.8203 31.141 34.7113 33.1749 32.6052 36.1112Z" fill="white" stroke="black"/>
</g>
<g id="snout">
<path id="Ellipse 28_2" d="M69.6124 79.7361C69.0925 90.4281 56.2208 104.091 31.3202 97.6958C18.8758 94.4999 11.7767 88.0095 8.87228 80.8251C5.9646 73.6328 7.22389 65.6598 11.6635 59.412C19.9385 47.7668 34.3197 45.4945 48.777 50.5793C63.1478 55.6337 70.1414 68.8556 69.6124 79.7361Z" fill="#F0C592" stroke="black"/>
<path id="Ellipse 30" d="M42.8158 51.5264C43.0965 55.0445 40.0502 58.2678 35.8566 58.6025C31.663 58.9372 28.1441 56.2378 27.8633 52.7197C27.5825 49.2017 30.6288 45.9784 34.8224 45.6437C39.016 45.309 42.535 48.0084 42.8158 51.5264Z" fill="#F0C592" stroke="black"/>
<path id="Ellipse 31" d="M60.5259 60.967C58.6795 63.9747 54.3188 64.7835 50.7336 62.5825C47.1484 60.3815 45.8962 56.1269 47.7426 53.1192C49.5891 50.1116 53.9497 49.3027 57.535 51.5037C61.1202 53.7047 62.3724 57.9593 60.5259 60.967Z" fill="#F0C592" stroke="black"/>
<ellipse id="Ellipse 32" cx="51.3968" cy="61.9088" rx="8" ry="7" transform="rotate(31.5459 51.3968 61.9088)" fill="#F0C592"/>
<ellipse id="Ellipse 29" cx="35.074" cy="58.138" rx="8.5" ry="8" transform="rotate(7.29272 35.074 58.138)" fill="#F0C592"/>
<ellipse id="Ellipse 33" cx="35.6472" cy="53.0162" rx="4.11136" ry="5.5" transform="rotate(39.708 35.6472 53.0162)" fill="#A77D55"/>
<ellipse id="Ellipse 36" rx="3.89338" ry="5.5" transform="matrix(-0.905402 0.424556 0.424556 0.905402 54.0721 57.2726)" fill="#A77D55"/>
<ellipse id="Ellipse 34" cx="36.3173" cy="53.6617" rx="2.80759" ry="3.48438" transform="rotate(39.708 36.3173 53.6617)" fill="black"/>
<ellipse id="Ellipse 35" rx="2.80759" ry="3.48438" transform="matrix(0.945828 -0.324668 -0.324668 -0.945828 53.2855 56.9106)" fill="black"/>
</g>
<path id="mouth" fill-rule="evenodd" clip-rule="evenodd" d="M21.0523 81.9615C17.9228 78.1947 16.4746 73.4244 17.9528 67.9763L18.9179 68.2382C17.5341 73.3384 18.8768 77.7782 21.8215 81.3224C24.7789 84.8819 29.3609 87.5428 34.4264 88.9985C39.4899 90.4536 44.99 90.6907 49.7542 89.4518C54.5128 88.2144 58.5089 85.515 60.6528 81.1102L61.552 81.5478C59.2507 86.2759 54.9752 89.1274 50.0058 90.4197C45.042 91.7105 39.3577 91.4561 34.1502 89.9596C28.9447 88.4637 24.1692 85.7129 21.0523 81.9615Z" fill="#BD6161"/>
<path id="mouth_2" fill-rule="evenodd" clip-rule="evenodd" d="M18.223 68.1982C17.4628 68.3648 16.6412 68.9854 15.9468 70.2999C15.8178 70.544 15.5153 70.6374 15.2711 70.5084C15.027 70.3794 14.9336 70.0769 15.0626 69.8328C16.1185 67.834 17.6481 66.9235 19.1736 67.1967C20.6613 67.4632 21.8808 68.8167 22.433 70.7544C22.5086 71.02 22.3547 71.2966 22.0891 71.3723C21.8235 71.448 21.5469 71.294 21.4712 71.0284C21.021 69.4484 20.1386 68.5204 19.2432 68.2414C17.8919 73.4981 19.2217 78.0614 22.1255 81.6959C25.0679 85.3788 29.6386 88.1181 34.6966 89.6039C39.7532 91.0892 45.2521 91.3082 50.0226 89.9989C54.7861 88.6915 58.8031 85.869 60.9748 81.2739L61.4042 81.4769C61.1921 81.2979 60.9632 81.1598 60.7277 81.0679C60.2462 80.8798 59.7259 80.876 59.22 81.106C58.7089 81.3383 58.1713 81.8288 57.7104 82.7012C57.5814 82.9454 57.2789 83.0387 57.0348 82.9097C56.7906 82.7807 56.6972 82.4782 56.8262 82.2341C57.3632 81.2176 58.0461 80.5411 58.8062 80.1956C59.5713 79.8478 60.3727 79.8557 61.0915 80.1364C62.5142 80.692 63.5646 82.2811 63.5928 84.2139C63.5968 84.49 63.3763 84.7171 63.1002 84.7211C62.824 84.7252 62.5969 84.5046 62.5929 84.2285C62.5788 83.2633 62.2597 82.4527 61.7945 81.8772C59.4546 86.684 55.2107 89.612 50.2873 90.9632C45.3112 92.329 39.6212 92.0927 34.4148 90.5634C29.21 89.0345 24.4439 86.1998 21.3442 82.3201C18.299 78.5086 16.874 73.6984 18.223 68.1982Z" fill="black"/>
<g id="eye">
<circle id="Ellipse 37" cx="59.4225" cy="45.1235" r="4" transform="rotate(7.29272 59.4225 45.1235)" fill="url(#paint0_radial)"/>
<g id="Ellipse 38">
<circle cx="59.4225" cy="45.1235" r="2" transform="rotate(7.29272 59.4225 45.1235)" fill="black"/>
<circle cx="59.4225" cy="45.1235" r="2" transform="rotate(7.29272 59.4225 45.1235)" fill="black"/>
</g>
<g id="Ellipse 39">
<circle cx="58.5575" cy="44.0046" r="1" transform="rotate(7.29272 58.5575 44.0046)" fill="black"/>
<circle cx="58.5575" cy="44.0046" r="1" transform="rotate(7.29272 58.5575 44.0046)" fill="white"/>
</g>
</g>
<g id="eye_2">
<circle id="Ellipse 37_2" cx="39.0759" cy="39.4952" r="4" transform="rotate(7.29272 39.0759 39.4952)" fill="url(#paint1_radial)"/>
<g id="Ellipse 38_2">
<circle cx="39.0759" cy="39.4952" r="2" transform="rotate(7.29272 39.0759 39.4952)" fill="black"/>
<circle cx="39.0759" cy="39.4952" r="2" transform="rotate(7.29272 39.0759 39.4952)" fill="black"/>
</g>
<g id="Ellipse 39_2">
<circle cx="38.2109" cy="38.3763" r="1" transform="rotate(7.29272 38.2109 38.3763)" fill="black"/>
<circle cx="38.2109" cy="38.3763" r="1" transform="rotate(7.29272 38.2109 38.3763)" fill="white"/>
</g>
</g>
<g id="brows">
<path id="Vector 66" d="M60.9003 26.5134C65.9986 22.1255 73.4896 26.6124 71.1132 33.3654" stroke="black" stroke-linecap="round"/>
<path id="Vector 65" d="M36.7198 26.3949C39.9999 20.4584 46.8798 21.843 48.1267 27.8547" stroke="black" stroke-linecap="round"/>
<path id="Vector 73" d="M36.4901 27.3737C39.7702 21.4372 46.6501 22.8217 47.8971 28.8334" stroke="white" stroke-width="2" stroke-linecap="round"/>
<path id="Vector 68" d="M68.9625 26.5373C62.4289 21.5336 56.2499 31.3408 56.2499 31.3408C63.3213 30.3841 66.3749 31.4014 69.8524 36.7332C69.8524 36.7332 73.5052 30.0163 68.9625 26.5373Z" fill="white"/>
<path id="Vector 68_2" d="M36.8165 25.6393C40.0965 19.7029 46.9765 21.0874 48.2234 27.0991" stroke="black" stroke-linecap="round"/>
</g>
</g>
</g>
<g id="tail">
<path id="Vector 79" d="M150.094 61.6075C146.035 59.8943 138.812 62.3488 138.812 62.3488C139.573 64.512 139.786 65.4551 139.94 66.7968C139.94 66.7968 145.906 64.3063 148.966 66.0554C152.461 68.0537 154.06 72.0838 152.351 75.6928C150.482 79.6388 145.957 79.3993 141.444 78.658C134.88 77.5797 131 68 129 65L127.5 67C130.885 71.8186 134.909 80.7721 141.82 81.6234C147.838 82.3646 153.99 82.5161 156.864 77.1754C160.008 71.3317 156.263 64.2113 150.094 61.6075Z" fill="white" stroke="black"/>
<path id="Vector 80" d="M129 65L127.5 67L117 61.5L123 62.5L119.5 57.5L124.5 62.5L122 56L126 61.5V55L129 65Z" fill="black" stroke="black" stroke-linejoin="round"/>
</g>
</g>
<path id="Union_3" fill-rule="evenodd" clip-rule="evenodd" d="M83.3457 119.593C83.6017 119.104 84.2059 118.915 84.6953 119.171C85.1847 119.427 85.3738 120.031 85.1178 120.52L84.6543 121.407C84.3983 121.896 83.7941 122.085 83.3047 121.829C82.8153 121.573 82.6261 120.969 82.8821 120.479L83.3457 119.593ZM86.7923 122.001C86.9679 121.477 87.5347 121.195 88.0583 121.37C88.582 121.546 88.8641 122.113 88.6885 122.637L88.3705 123.585C88.1949 124.108 87.628 124.39 87.1044 124.215C86.5808 124.039 86.2987 123.472 86.4743 122.949L86.7923 122.001ZM92.6256 122.293C92.0736 122.277 91.6128 122.711 91.5966 123.263L91.5671 124.263C91.5508 124.815 91.9851 125.276 92.5371 125.292C93.0892 125.308 93.5499 124.874 93.5662 124.322L93.5957 123.322C93.612 122.77 93.1777 122.31 92.6256 122.293ZM97.059 124C97.0753 123.448 97.536 123.013 98.088 123.029C98.6401 123.046 99.0744 123.506 99.0581 124.059L99.0286 125.058C99.0123 125.61 98.5516 126.044 97.9996 126.028C97.4475 126.012 97.0132 125.551 97.0295 124.999L97.059 124ZM103.276 122.14C102.732 122.234 102.367 122.751 102.461 123.296L102.632 124.281C102.726 124.825 103.244 125.19 103.788 125.096C104.332 125.001 104.697 124.484 104.602 123.94L104.432 122.954C104.338 122.41 103.82 122.045 103.276 122.14Z" fill="#F69797"/>
</g>
<defs>
<radialGradient id="paint0_radial" cx="0" cy="0" r="1" gradientUnits="userSpaceOnUse" gradientTransform="translate(59.4225 45.1235) rotate(90) scale(4)">
<stop stop-color="#B3D9FF"/>
<stop offset="1" stop-color="#4D8DCC"/>
</radialGradient>
<radialGradient id="paint1_radial" cx="0" cy="0" r="1" gradientUnits="userSpaceOnUse" gradientTransform="translate(39.0759 39.4952) rotate(90) scale(4)">
<stop stop-color="#B3D9FF"/>
<stop offset="1" stop-color="#4D8DCC"/>
</radialGradient>
</defs>
</svg>
