<svg width="1295" height="339" viewBox="0 0 1295 339" fill="none" xmlns="http://www.w3.org/2000/svg">
<g filter="url(#filter0_d)">
<path d="M654 33.5L669 80.5H682L697 29.5L686 47V1L673 54.5L654 33.5Z" fill="#3A860C"/>
<path d="M654 33.5L669 80.5H682L697 29.5L686 47V1L673 54.5L654 33.5Z" stroke="#1C4702"/>
</g>
<g filter="url(#filter1_d)">
<path d="M318.842 103.236L311.391 152.006L298.552 154.043L275.746 106.023L289.352 121.583L282.145 76.1513L303.367 126.954L318.842 103.236Z" fill="#3A860C"/>
<path d="M318.842 103.236L311.391 152.006L298.552 154.043L275.746 106.023L289.352 121.583L282.145 76.1513L303.367 126.954L318.842 103.236Z" stroke="#1C4702"/>
</g>
<g filter="url(#filter2_d)">
<path d="M1020.99 169.692L1002.44 215.408L989.481 214.414L978.423 162.417L988.053 180.706L991.57 134.841L1000.44 189.178L1020.99 169.692Z" fill="#3A860C"/>
<path d="M1020.99 169.692L1002.44 215.408L989.481 214.414L978.423 162.417L988.053 180.706L991.57 134.841L1000.44 189.178L1020.99 169.692Z" stroke="#1C4702"/>
</g>
<g filter="url(#filter3_d)">
<path d="M929.215 113.5L944.215 160.5H957.215L972.215 109.5L961.215 127V81L948.215 134.5L929.215 113.5Z" fill="#3A860C"/>
<path d="M929.215 113.5L944.215 160.5H957.215L972.215 109.5L961.215 127V81L948.215 134.5L929.215 113.5Z" stroke="#1C4702"/>
</g>
<g filter="url(#filter4_d)">
<path d="M59.5612 225.37L52.1108 274.14L39.2714 276.177L16.4656 228.157L30.0718 243.718L22.8641 198.286L44.0863 249.088L59.5612 225.37Z" fill="#3A860C"/>
<path d="M59.5612 225.37L52.1108 274.14L39.2714 276.177L16.4656 228.157L30.0718 243.718L22.8641 198.286L44.0863 249.088L59.5612 225.37Z" stroke="#1C4702"/>
</g>
<g filter="url(#filter5_d)">
<path d="M740.467 228.42L721.918 274.136L708.956 273.142L697.898 221.145L707.529 239.435L711.045 193.569L719.917 247.906L740.467 228.42Z" fill="#3A860C"/>
<path d="M740.467 228.42L721.918 274.136L708.956 273.142L697.898 221.145L707.529 239.435L711.045 193.569L719.917 247.906L740.467 228.42Z" stroke="#1C4702"/>
</g>
<g filter="url(#filter6_d)">
<path d="M414 86.5L429 133.5H442L457 82.5L446 100V54L433 107.5L414 86.5Z" fill="#3A860C"/>
<path d="M414 86.5L429 133.5H442L457 82.5L446 100V54L433 107.5L414 86.5Z" stroke="#1C4702"/>
</g>
<g filter="url(#filter7_d)">
<path d="M556.561 121.099L549.111 169.868L536.271 171.905L513.466 123.886L527.072 139.446L519.864 94.014L541.086 144.816L556.561 121.099Z" fill="#3A860C"/>
<path d="M556.561 121.099L549.111 169.868L536.271 171.905L513.466 123.886L527.072 139.446L519.864 94.014L541.086 144.816L556.561 121.099Z" stroke="#1C4702"/>
</g>
<g filter="url(#filter8_d)">
<path d="M1233.69 260.216L1215.15 305.932L1202.18 304.938L1191.13 252.941L1200.76 271.23L1204.27 225.365L1213.14 279.702L1233.69 260.216Z" fill="#3A860C"/>
<path d="M1233.69 260.216L1215.15 305.932L1202.18 304.938L1191.13 252.941L1200.76 271.23L1204.27 225.365L1213.14 279.702L1233.69 260.216Z" stroke="#1C4702"/>
</g>
<g filter="url(#filter9_d)">
<path d="M824 200.5L839 247.5H852L867 196.5L856 214V168L843 221.5L824 200.5Z" fill="#3A860C"/>
<path d="M824 200.5L839 247.5H852L867 196.5L856 214V168L843 221.5L824 200.5Z" stroke="#1C4702"/>
</g>
<g filter="url(#filter10_d)">
<path d="M236.958 245.827L229.507 294.597L216.668 296.634L193.862 248.614L207.468 264.175L200.261 218.743L221.483 269.545L236.958 245.827Z" fill="#3A860C"/>
<path d="M236.958 245.827L229.507 294.597L216.668 296.634L193.862 248.614L207.468 264.175L200.261 218.743L221.483 269.545L236.958 245.827Z" stroke="#1C4702"/>
</g>
<g filter="url(#filter11_d)">
<path d="M908.294 289.427L889.746 335.143L876.784 334.15L865.726 282.152L875.356 300.442L878.872 254.576L887.745 308.914L908.294 289.427Z" fill="#3A860C"/>
<path d="M908.294 289.427L889.746 335.143L876.784 334.15L865.726 282.152L875.356 300.442L878.872 254.576L887.745 308.914L908.294 289.427Z" stroke="#1C4702"/>
</g>
<g filter="url(#filter12_d)">
<path d="M343.51 60.7363L337.504 109.705L324.73 112.121L300.515 64.7958L314.575 79.9472L306.028 34.7482L328.743 84.901L343.51 60.7363Z" fill="#3A860C"/>
<path d="M343.51 60.7363L337.504 109.705L324.73 112.121L300.515 64.7958L314.575 79.9472L306.028 34.7482L328.743 84.901L343.51 60.7363Z" stroke="#1C4702"/>
</g>
<g filter="url(#filter13_d)">
<path d="M629.764 81.4858L643.369 128.909L656.363 129.293L672.864 78.7584L661.352 95.9257L662.711 49.9458L648.136 103.038L629.764 81.4858Z" fill="#3A860C"/>
<path d="M629.764 81.4858L643.369 128.909L656.363 129.293L672.864 78.7584L661.352 95.9257L662.711 49.9458L648.136 103.038L629.764 81.4858Z" stroke="#1C4702"/>
</g>
<g filter="url(#filter14_d)">
<path d="M655.29 152.934L649.284 201.903L636.511 204.318L612.296 156.993L626.356 172.145L617.808 126.946L640.523 177.099L655.29 152.934Z" fill="#3A860C"/>
<path d="M655.29 152.934L649.284 201.903L636.511 204.318L612.296 156.993L626.356 172.145L617.808 126.946L640.523 177.099L655.29 152.934Z" stroke="#1C4702"/>
</g>
<g filter="url(#filter15_d)">
<path d="M370.484 203.62L384.088 251.043L397.083 251.427L413.583 200.893L402.071 218.06L403.431 172.08L388.855 225.173L370.484 203.62Z" fill="#3A860C"/>
<path d="M370.484 203.62L384.088 251.043L397.083 251.427L413.583 200.893L402.071 218.06L403.431 172.08L388.855 225.173L370.484 203.62Z" stroke="#1C4702"/>
</g>
<g filter="url(#filter16_d)">
<path d="M1047.97 279.311L1050.21 328.595L1062.76 331.98L1090.53 286.645L1075.35 300.677L1087.33 256.264L1060.84 304.534L1047.97 279.311Z" fill="#3A860C"/>
<path d="M1047.97 279.311L1050.21 328.595L1062.76 331.98L1090.53 286.645L1075.35 300.677L1087.33 256.264L1060.84 304.534L1047.97 279.311Z" stroke="#1C4702"/>
</g>
<g filter="url(#filter17_d)">
<path d="M175.845 137.995L207.214 176.074L219.286 171.25L214.291 118.325L210.57 138.658L193.501 95.9417L201.281 150.446L175.845 137.995Z" fill="#3A860C"/>
<path d="M175.845 137.995L207.214 176.074L219.286 171.25L214.291 118.325L210.57 138.658L193.501 95.9417L201.281 150.446L175.845 137.995Z" stroke="#1C4702"/>
</g>
<g filter="url(#filter18_d)">
<path d="M807.464 131.52L782.449 174.043L769.77 171.17L766.411 118.116L773.272 137.615L783.437 92.7517L784.293 147.802L807.464 131.52Z" fill="#3A860C"/>
<path d="M807.464 131.52L782.449 174.043L769.77 171.17L766.411 118.116L773.272 137.615L783.437 92.7517L784.293 147.802L807.464 131.52Z" stroke="#1C4702"/>
</g>
<g filter="url(#filter19_d)">
<path d="M451.06 217.995L482.429 256.074L494.501 251.25L489.505 198.325L485.784 218.658L468.715 175.942L476.495 230.446L451.06 217.995Z" fill="#3A860C"/>
<path d="M451.06 217.995L482.429 256.074L494.501 251.25L489.505 198.325L485.784 218.658L468.715 175.942L476.495 230.446L451.06 217.995Z" stroke="#1C4702"/>
</g>
<g filter="url(#filter20_d)">
<path d="M577.323 258.199L552.308 300.722L539.629 297.849L536.27 244.795L543.131 264.294L553.296 219.431L554.152 274.481L577.323 258.199Z" fill="#3A860C"/>
<path d="M577.323 258.199L552.308 300.722L539.629 297.849L536.27 244.795L543.131 264.294L553.296 219.431L554.152 274.481L577.323 258.199Z" stroke="#1C4702"/>
</g>
<defs>
<filter id="filter0_d" x="642.524" y="0.881943" width="55.956" height="93.1181" filterUnits="userSpaceOnUse" color-interpolation-filters="sRGB">
<feFlood flood-opacity="0" result="BackgroundImageFix"/>
<feColorMatrix in="SourceAlpha" type="matrix" values="0 0 0 0 0 0 0 0 0 0 0 0 0 0 0 0 0 0 127 0"/>
<feOffset dx="-5" dy="7"/>
<feGaussianBlur stdDeviation="3"/>
<feColorMatrix type="matrix" values="0 0 0 0 0 0 0 0 0 0 0 0 0 0 0 0 0 0 0.25 0"/>
<feBlend mode="normal" in2="BackgroundImageFix" result="effect1_dropShadow"/>
<feBlend mode="normal" in="SourceGraphic" in2="effect1_dropShadow" result="shape"/>
</filter>
<filter id="filter1_d" x="259.788" y="70.9461" width="67.9666" height="99.0158" filterUnits="userSpaceOnUse" color-interpolation-filters="sRGB">
<feFlood flood-opacity="0" result="BackgroundImageFix"/>
<feColorMatrix in="SourceAlpha" type="matrix" values="0 0 0 0 0 0 0 0 0 0 0 0 0 0 0 0 0 0 127 0"/>
<feOffset dx="-5" dy="7"/>
<feGaussianBlur stdDeviation="3"/>
<feColorMatrix type="matrix" values="0 0 0 0 0 0 0 0 0 0 0 0 0 0 0 0 0 0 0.25 0"/>
<feBlend mode="normal" in2="BackgroundImageFix" result="effect1_dropShadow"/>
<feBlend mode="normal" in="SourceGraphic" in2="effect1_dropShadow" result="shape"/>
</filter>
<filter id="filter2_d" x="963.008" y="133.846" width="61.9517" height="96.2437" filterUnits="userSpaceOnUse" color-interpolation-filters="sRGB">
<feFlood flood-opacity="0" result="BackgroundImageFix"/>
<feColorMatrix in="SourceAlpha" type="matrix" values="0 0 0 0 0 0 0 0 0 0 0 0 0 0 0 0 0 0 127 0"/>
<feOffset dx="-5" dy="7"/>
<feGaussianBlur stdDeviation="3"/>
<feColorMatrix type="matrix" values="0 0 0 0 0 0 0 0 0 0 0 0 0 0 0 0 0 0 0.25 0"/>
<feBlend mode="normal" in2="BackgroundImageFix" result="effect1_dropShadow"/>
<feBlend mode="normal" in="SourceGraphic" in2="effect1_dropShadow" result="shape"/>
</filter>
<filter id="filter3_d" x="917.739" y="80.8819" width="55.956" height="93.1181" filterUnits="userSpaceOnUse" color-interpolation-filters="sRGB">
<feFlood flood-opacity="0" result="BackgroundImageFix"/>
<feColorMatrix in="SourceAlpha" type="matrix" values="0 0 0 0 0 0 0 0 0 0 0 0 0 0 0 0 0 0 127 0"/>
<feOffset dx="-5" dy="7"/>
<feGaussianBlur stdDeviation="3"/>
<feColorMatrix type="matrix" values="0 0 0 0 0 0 0 0 0 0 0 0 0 0 0 0 0 0 0.25 0"/>
<feBlend mode="normal" in2="BackgroundImageFix" result="effect1_dropShadow"/>
<feBlend mode="normal" in="SourceGraphic" in2="effect1_dropShadow" result="shape"/>
</filter>
<filter id="filter4_d" x="0.507751" y="193.081" width="67.9666" height="99.0158" filterUnits="userSpaceOnUse" color-interpolation-filters="sRGB">
<feFlood flood-opacity="0" result="BackgroundImageFix"/>
<feColorMatrix in="SourceAlpha" type="matrix" values="0 0 0 0 0 0 0 0 0 0 0 0 0 0 0 0 0 0 127 0"/>
<feOffset dx="-5" dy="7"/>
<feGaussianBlur stdDeviation="3"/>
<feColorMatrix type="matrix" values="0 0 0 0 0 0 0 0 0 0 0 0 0 0 0 0 0 0 0.25 0"/>
<feBlend mode="normal" in2="BackgroundImageFix" result="effect1_dropShadow"/>
<feBlend mode="normal" in="SourceGraphic" in2="effect1_dropShadow" result="shape"/>
</filter>
<filter id="filter5_d" x="682.484" y="192.574" width="61.9517" height="96.2437" filterUnits="userSpaceOnUse" color-interpolation-filters="sRGB">
<feFlood flood-opacity="0" result="BackgroundImageFix"/>
<feColorMatrix in="SourceAlpha" type="matrix" values="0 0 0 0 0 0 0 0 0 0 0 0 0 0 0 0 0 0 127 0"/>
<feOffset dx="-5" dy="7"/>
<feGaussianBlur stdDeviation="3"/>
<feColorMatrix type="matrix" values="0 0 0 0 0 0 0 0 0 0 0 0 0 0 0 0 0 0 0.25 0"/>
<feBlend mode="normal" in2="BackgroundImageFix" result="effect1_dropShadow"/>
<feBlend mode="normal" in="SourceGraphic" in2="effect1_dropShadow" result="shape"/>
</filter>
<filter id="filter6_d" x="402.524" y="53.8819" width="55.956" height="93.1181" filterUnits="userSpaceOnUse" color-interpolation-filters="sRGB">
<feFlood flood-opacity="0" result="BackgroundImageFix"/>
<feColorMatrix in="SourceAlpha" type="matrix" values="0 0 0 0 0 0 0 0 0 0 0 0 0 0 0 0 0 0 127 0"/>
<feOffset dx="-5" dy="7"/>
<feGaussianBlur stdDeviation="3"/>
<feColorMatrix type="matrix" values="0 0 0 0 0 0 0 0 0 0 0 0 0 0 0 0 0 0 0.25 0"/>
<feBlend mode="normal" in2="BackgroundImageFix" result="effect1_dropShadow"/>
<feBlend mode="normal" in="SourceGraphic" in2="effect1_dropShadow" result="shape"/>
</filter>
<filter id="filter7_d" x="497.508" y="88.8088" width="67.9666" height="99.0158" filterUnits="userSpaceOnUse" color-interpolation-filters="sRGB">
<feFlood flood-opacity="0" result="BackgroundImageFix"/>
<feColorMatrix in="SourceAlpha" type="matrix" values="0 0 0 0 0 0 0 0 0 0 0 0 0 0 0 0 0 0 127 0"/>
<feOffset dx="-5" dy="7"/>
<feGaussianBlur stdDeviation="3"/>
<feColorMatrix type="matrix" values="0 0 0 0 0 0 0 0 0 0 0 0 0 0 0 0 0 0 0.25 0"/>
<feBlend mode="normal" in2="BackgroundImageFix" result="effect1_dropShadow"/>
<feBlend mode="normal" in="SourceGraphic" in2="effect1_dropShadow" result="shape"/>
</filter>
<filter id="filter8_d" x="1175.71" y="224.37" width="61.9517" height="96.2437" filterUnits="userSpaceOnUse" color-interpolation-filters="sRGB">
<feFlood flood-opacity="0" result="BackgroundImageFix"/>
<feColorMatrix in="SourceAlpha" type="matrix" values="0 0 0 0 0 0 0 0 0 0 0 0 0 0 0 0 0 0 127 0"/>
<feOffset dx="-5" dy="7"/>
<feGaussianBlur stdDeviation="3"/>
<feColorMatrix type="matrix" values="0 0 0 0 0 0 0 0 0 0 0 0 0 0 0 0 0 0 0.25 0"/>
<feBlend mode="normal" in2="BackgroundImageFix" result="effect1_dropShadow"/>
<feBlend mode="normal" in="SourceGraphic" in2="effect1_dropShadow" result="shape"/>
</filter>
<filter id="filter9_d" x="812.524" y="167.882" width="55.956" height="93.1181" filterUnits="userSpaceOnUse" color-interpolation-filters="sRGB">
<feFlood flood-opacity="0" result="BackgroundImageFix"/>
<feColorMatrix in="SourceAlpha" type="matrix" values="0 0 0 0 0 0 0 0 0 0 0 0 0 0 0 0 0 0 127 0"/>
<feOffset dx="-5" dy="7"/>
<feGaussianBlur stdDeviation="3"/>
<feColorMatrix type="matrix" values="0 0 0 0 0 0 0 0 0 0 0 0 0 0 0 0 0 0 0.25 0"/>
<feBlend mode="normal" in2="BackgroundImageFix" result="effect1_dropShadow"/>
<feBlend mode="normal" in="SourceGraphic" in2="effect1_dropShadow" result="shape"/>
</filter>
<filter id="filter10_d" x="177.904" y="213.538" width="67.9666" height="99.0158" filterUnits="userSpaceOnUse" color-interpolation-filters="sRGB">
<feFlood flood-opacity="0" result="BackgroundImageFix"/>
<feColorMatrix in="SourceAlpha" type="matrix" values="0 0 0 0 0 0 0 0 0 0 0 0 0 0 0 0 0 0 127 0"/>
<feOffset dx="-5" dy="7"/>
<feGaussianBlur stdDeviation="3"/>
<feColorMatrix type="matrix" values="0 0 0 0 0 0 0 0 0 0 0 0 0 0 0 0 0 0 0.25 0"/>
<feBlend mode="normal" in2="BackgroundImageFix" result="effect1_dropShadow"/>
<feBlend mode="normal" in="SourceGraphic" in2="effect1_dropShadow" result="shape"/>
</filter>
<filter id="filter11_d" x="850.311" y="253.581" width="61.9517" height="96.2437" filterUnits="userSpaceOnUse" color-interpolation-filters="sRGB">
<feFlood flood-opacity="0" result="BackgroundImageFix"/>
<feColorMatrix in="SourceAlpha" type="matrix" values="0 0 0 0 0 0 0 0 0 0 0 0 0 0 0 0 0 0 127 0"/>
<feOffset dx="-5" dy="7"/>
<feGaussianBlur stdDeviation="3"/>
<feColorMatrix type="matrix" values="0 0 0 0 0 0 0 0 0 0 0 0 0 0 0 0 0 0 0.25 0"/>
<feBlend mode="normal" in2="BackgroundImageFix" result="effect1_dropShadow"/>
<feBlend mode="normal" in="SourceGraphic" in2="effect1_dropShadow" result="shape"/>
</filter>
<filter id="filter12_d" x="283.726" y="28.5978" width="70.0772" height="99.8903" filterUnits="userSpaceOnUse" color-interpolation-filters="sRGB">
<feFlood flood-opacity="0" result="BackgroundImageFix"/>
<feColorMatrix in="SourceAlpha" type="matrix" values="0 0 0 0 0 0 0 0 0 0 0 0 0 0 0 0 0 0 127 0"/>
<feOffset dx="-5" dy="7"/>
<feGaussianBlur stdDeviation="3"/>
<feColorMatrix type="matrix" values="0 0 0 0 0 0 0 0 0 0 0 0 0 0 0 0 0 0 0.25 0"/>
<feBlend mode="normal" in2="BackgroundImageFix" result="effect1_dropShadow"/>
<feBlend mode="normal" in="SourceGraphic" in2="effect1_dropShadow" result="shape"/>
</filter>
<filter id="filter13_d" x="616.885" y="48.8679" width="58.3047" height="94.3822" filterUnits="userSpaceOnUse" color-interpolation-filters="sRGB">
<feFlood flood-opacity="0" result="BackgroundImageFix"/>
<feColorMatrix in="SourceAlpha" type="matrix" values="0 0 0 0 0 0 0 0 0 0 0 0 0 0 0 0 0 0 127 0"/>
<feOffset dx="-5" dy="7"/>
<feGaussianBlur stdDeviation="3"/>
<feColorMatrix type="matrix" values="0 0 0 0 0 0 0 0 0 0 0 0 0 0 0 0 0 0 0.25 0"/>
<feBlend mode="normal" in2="BackgroundImageFix" result="effect1_dropShadow"/>
<feBlend mode="normal" in="SourceGraphic" in2="effect1_dropShadow" result="shape"/>
</filter>
<filter id="filter14_d" x="595.507" y="120.796" width="70.0772" height="99.8903" filterUnits="userSpaceOnUse" color-interpolation-filters="sRGB">
<feFlood flood-opacity="0" result="BackgroundImageFix"/>
<feColorMatrix in="SourceAlpha" type="matrix" values="0 0 0 0 0 0 0 0 0 0 0 0 0 0 0 0 0 0 127 0"/>
<feOffset dx="-5" dy="7"/>
<feGaussianBlur stdDeviation="3"/>
<feColorMatrix type="matrix" values="0 0 0 0 0 0 0 0 0 0 0 0 0 0 0 0 0 0 0.25 0"/>
<feBlend mode="normal" in2="BackgroundImageFix" result="effect1_dropShadow"/>
<feBlend mode="normal" in="SourceGraphic" in2="effect1_dropShadow" result="shape"/>
</filter>
<filter id="filter15_d" x="357.604" y="171.003" width="58.3047" height="94.3822" filterUnits="userSpaceOnUse" color-interpolation-filters="sRGB">
<feFlood flood-opacity="0" result="BackgroundImageFix"/>
<feColorMatrix in="SourceAlpha" type="matrix" values="0 0 0 0 0 0 0 0 0 0 0 0 0 0 0 0 0 0 127 0"/>
<feOffset dx="-5" dy="7"/>
<feGaussianBlur stdDeviation="3"/>
<feColorMatrix type="matrix" values="0 0 0 0 0 0 0 0 0 0 0 0 0 0 0 0 0 0 0.25 0"/>
<feBlend mode="normal" in2="BackgroundImageFix" result="effect1_dropShadow"/>
<feBlend mode="normal" in="SourceGraphic" in2="effect1_dropShadow" result="shape"/>
</filter>
<filter id="filter16_d" x="1024.14" y="247.694" width="75.3006" height="101.8" filterUnits="userSpaceOnUse" color-interpolation-filters="sRGB">
<feFlood flood-opacity="0" result="BackgroundImageFix"/>
<feColorMatrix in="SourceAlpha" type="matrix" values="0 0 0 0 0 0 0 0 0 0 0 0 0 0 0 0 0 0 127 0"/>
<feOffset dx="-5" dy="7"/>
<feGaussianBlur stdDeviation="3"/>
<feColorMatrix type="matrix" values="0 0 0 0 0 0 0 0 0 0 0 0 0 0 0 0 0 0 0.25 0"/>
<feBlend mode="normal" in2="BackgroundImageFix" result="effect1_dropShadow"/>
<feBlend mode="normal" in="SourceGraphic" in2="effect1_dropShadow" result="shape"/>
</filter>
<filter id="filter17_d" x="152.299" y="91.5724" width="82.5468" height="103.709" filterUnits="userSpaceOnUse" color-interpolation-filters="sRGB">
<feFlood flood-opacity="0" result="BackgroundImageFix"/>
<feColorMatrix in="SourceAlpha" type="matrix" values="0 0 0 0 0 0 0 0 0 0 0 0 0 0 0 0 0 0 127 0"/>
<feOffset dx="-5" dy="7"/>
<feGaussianBlur stdDeviation="3"/>
<feColorMatrix type="matrix" values="0 0 0 0 0 0 0 0 0 0 0 0 0 0 0 0 0 0 0.25 0"/>
<feBlend mode="normal" in2="BackgroundImageFix" result="effect1_dropShadow"/>
<feBlend mode="normal" in="SourceGraphic" in2="effect1_dropShadow" result="shape"/>
</filter>
<filter id="filter18_d" x="743.563" y="90.0999" width="72.5737" height="100.851" filterUnits="userSpaceOnUse" color-interpolation-filters="sRGB">
<feFlood flood-opacity="0" result="BackgroundImageFix"/>
<feColorMatrix in="SourceAlpha" type="matrix" values="0 0 0 0 0 0 0 0 0 0 0 0 0 0 0 0 0 0 127 0"/>
<feOffset dx="-5" dy="7"/>
<feGaussianBlur stdDeviation="3"/>
<feColorMatrix type="matrix" values="0 0 0 0 0 0 0 0 0 0 0 0 0 0 0 0 0 0 0.25 0"/>
<feBlend mode="normal" in2="BackgroundImageFix" result="effect1_dropShadow"/>
<feBlend mode="normal" in="SourceGraphic" in2="effect1_dropShadow" result="shape"/>
</filter>
<filter id="filter19_d" x="427.514" y="171.572" width="82.5468" height="103.709" filterUnits="userSpaceOnUse" color-interpolation-filters="sRGB">
<feFlood flood-opacity="0" result="BackgroundImageFix"/>
<feColorMatrix in="SourceAlpha" type="matrix" values="0 0 0 0 0 0 0 0 0 0 0 0 0 0 0 0 0 0 127 0"/>
<feOffset dx="-5" dy="7"/>
<feGaussianBlur stdDeviation="3"/>
<feColorMatrix type="matrix" values="0 0 0 0 0 0 0 0 0 0 0 0 0 0 0 0 0 0 0.25 0"/>
<feBlend mode="normal" in2="BackgroundImageFix" result="effect1_dropShadow"/>
<feBlend mode="normal" in="SourceGraphic" in2="effect1_dropShadow" result="shape"/>
</filter>
<filter id="filter20_d" x="513.422" y="216.779" width="72.5737" height="100.851" filterUnits="userSpaceOnUse" color-interpolation-filters="sRGB">
<feFlood flood-opacity="0" result="BackgroundImageFix"/>
<feColorMatrix in="SourceAlpha" type="matrix" values="0 0 0 0 0 0 0 0 0 0 0 0 0 0 0 0 0 0 127 0"/>
<feOffset dx="-5" dy="7"/>
<feGaussianBlur stdDeviation="3"/>
<feColorMatrix type="matrix" values="0 0 0 0 0 0 0 0 0 0 0 0 0 0 0 0 0 0 0.25 0"/>
<feBlend mode="normal" in2="BackgroundImageFix" result="effect1_dropShadow"/>
<feBlend mode="normal" in="SourceGraphic" in2="effect1_dropShadow" result="shape"/>
</filter>
</defs>
</svg>
